<?xml version="1.0" encoding="UTF-8"?>
<svg id="Capa_2" data-name="Capa 2" xmlns="http://www.w3.org/2000/svg" viewBox="0 0 157.41 260.15">
  <defs>
    <style>
      .cls-1 {
        opacity: .29;
      }

      .cls-2 {
        fill: #e8aaaf;
      }

      .cls-3 {
        fill: #9ab7a6;
      }

      .cls-4 {
        fill: #3a3a3a;
      }
    </style>
  </defs>
  <g id="Capa_1-2" data-name="Capa 1">
    <g>
      <g>
        <path class="cls-3" d="m118.76,198.9c-.73-8.65.39-20.34-4.84-17.7-2.35,1.22-6.99,10.36-7.33,17.7-.34,2.1-2.25,3.23-4.6,3.47-1.61.15-3.42.1-4.79-1.22-3.27-3.18-2.79-13.34-3.81-17.65-.59-2.64-1.52-3.81-2.93-3.57-3.57.68-6.01,12.76-6.5,19.65-.15,2.1-2.49,3.03-5.33,3.13-3.32.05-4.74-1.37-5.48-3.67-2.05-6.26-2.05-17.01-.93-23.66.49-3.42,6.3-3.08,7.58-1.61.54.68.39,1.42.39,1.42,0,2.25.1,4.45.24,6.94,2.05-4.84,6.4-10.02,12.51-10.17,6.65,0,8.75,5.62,9.53,14.08,2.1-5.13,5.08-10.31,10.56-12.95,5.28-2.54,11.29-1.56,14.08,7.14,1.32,4.11,1.47,14.37,1.47,17.74.54,5.13-9.39,5.96-9.83.93Z"/>
        <path class="cls-3" d="m141.34,200.41c.39,1.56-8.21,1.81-9.04-.64-.93-2.3.2-14.62.64-19.21.05-.29-.29-2.15,3.32-2.35,4.94-.34,4.69,1.95,4.69,1.95.39.34.34,19.94.39,20.24Z"/>
        <path class="cls-3" d="m60.27,204.33l-.61-.84c-.86-1.18-2.44-1.65-3.83-1.13-9.74,3.58-20.74-5.45-25.83-10.41l.44-.29c12.32-6.65,9.68-22.53-3.23-25.17-2.15-.44-4.35-.64-6.45-.54-3.47-.68-6.31.24-6.21,2.93-.05,3.71-.73,27.57.39,31.33.98,3.71,9.53,2.83,9.09.44,0-.16,0-1.8-.03-3.67,4.93,4.69,15.82,13.58,27.56,13.58,2.43,0,4.79-.38,7.04-1.14,1.03-.35,1.81-1.14,2.14-2.17.32-1.01.14-2.07-.48-2.93Zm-36.67-18.29c-.2-4.01-.1-8.7-.39-12.66,11.24.29,8.65,12.02.39,12.66Z"/>
        <g>
          <path class="cls-3" d="m67.45,183c-5.15,2.25-4.35-4.93-4.35-4.93,0,0-.9,1.12-3.78.3-3.15-.9-2.69-4.28-2.55-5.06-.72-.13-1.47-.17-2.19-.16-4.83.11-8.6,2.9-10.85,6.66-1.46,2.54-2.14,5.47-2.05,8.39.54,19.42,26.1,15.21,26.1-1.8.03-1.21-.09-2.36-.33-3.42Zm-9.2,4.14c-.69,6.65-8.27,7.58-8.27.2,0-8.22,9.15-8.36,8.27-.2Z"/>
          <g>
            <path class="cls-3" d="m61.2,177.16c-.62-.74-1.23-1.54-1.66-2.41-.09-.19-.19-.4-.22-.6-.11-.59.41-.92.92-.72.32.13.61.35.85.6,0,0,.04-2.27,1.47-1.77,1.51.53-1.36,4.91-1.36,4.91Z"/>
            <path class="cls-3" d="m66.61,181.33s-1.63-.53-1.47-1.53.74-1.3,1.28-1.02,1.54,2.86.19,2.54Z"/>
            <path class="cls-3" d="m65.12,176.7s-1.45,0-1.33-.88,1.16-1.3,1.58-.89.76,1.88-.25,1.77Z"/>
          </g>
        </g>
        <path class="cls-3" d="m137.4,175.74s-6.17-5.84-4.61-7.78c2.11-2.62,4.95.98,4.95.98,0,0,.91-4.77,4.32-3.33s-2.29,9.27-4.65,10.13Z"/>
      </g>
      <g>
        <g>
          <path class="cls-2" d="m24.06,235.02c1.22,9.04-8.55,12.51-16.18,12.37h-.2c-2.44.73-6.5.29-7.14-2.3-.93-3.86-.44-26.98-.2-30.84,0-.49-.39-3.32,3.18-3.86,1.81-.25,2.93.05,3.62.63,8.99-1.27,18.97,7.87,10.71,16.33,3.62.98,5.77,4.2,6.21,7.68Zm-15.4-17.89c.05,1.22.24,6.31.29,7.67,6.16-.58,6.45-8.21-.29-7.67Zm.68,15.64c.1,1.71.24,5.72.29,7.28,9.97.25,8.7-8.16-.29-7.28Z"/>
          <path class="cls-2" d="m53.68,241.28c.15,1.95.39,3.17.44,3.32.34.69-1.61,1.52-3.71,1.96-2.25.39-4.64.29-5.33-1.08-.1-.19-.15-.39-.29-.68-5.33,3.47-13.1,1.56-16.23-4.4-3.67-7.19,1.17-17.55,9.34-21.07,3.47-1.47,11.39-2.4,13.64,1.9,3.47.64,2.98,2.54,2.98,2.54-.68,5.52-1.47,11.68-.83,17.5Zm-17.06-8.9c-1.17,4.69,3.67,7.14,7.14.93,1.08-2.05,1.42-4.5,2.01-7.28q-.1,0-.15-.05c-3.86,0-7.87,2.05-8.99,6.4Z"/>
          <path class="cls-2" d="m76.45,246.75c-2.54-.88-8.02-7.97-9.97-10.71.34,2.49.59,5.92.93,7.58.29,1.13-1.61,2.15-3.81,2.54-2.15.39-4.59,0-5.33-1.81-1.76-5.62-.93-25.66-.1-30.8.05-.49.05-3.42,3.67-3.28,2.05.05,4.55.83,4.4,3.37-.39,4.45-.29,8.9-.24,13.59,3.08-3.08,8.21-7.09,9.97-11.19.98-.98,8.46,3.08,7.58,4.99-2.3,5.28-6.94,8.7-9.48,10.85,3.32,3.22,8.85,8.55,9.14,8.75,1.12.54-4.65,6.84-6.75,6.11Z"/>
          <path class="cls-2" d="m95.51,245.29c.39,1.56-8.21,1.81-9.04-.64-.93-2.3.2-14.61.64-19.21.05-.29-.29-2.15,3.32-2.35,4.94-.34,4.69,1.96,4.69,1.96.39.34.34,19.94.39,20.24Z"/>
          <path class="cls-2" d="m125.43,245.38c-1.27,2.79-8.07,2.15-8.07-1.02,0-.83.39-2.64.39-2.64.39-2.74.64-5.92,0-8.85-.49-2.34-1.76-5.33-4.89-5.23-2.4.05-4.74,2.25-4.65,6.36-.05.05-.05.15-.05.19.15,5.43.39,10.56.49,10.9.44,1.91-8.07,2.84-9.14-.15-1.17-3.47,0-20.92.54-24.39.1-.39-.05-2.79,3.57-2.74,2.44,0,3.62.69,4.11,1.42.2.29.24.59.34.78,2.25-.88,4.84-1.56,7.33-1.47,5.82.25,9.58,4.94,10.66,10.66.78,4.01.68,13.25-.64,16.18Z"/>
          <path class="cls-2" d="m150.01,257.07c-4.64,3.81-11.29,4.35-16.47.15-2.15-1.76-3.72-4.16-3.72-6.84.39-2.98,4.25-4.64,6.5-1.95.49.58,1.03,1.32,1.66,2,4.06,4.3,7.82.54,8.8-4.64-8.75.78-18.09-5.67-16.62-15.74.98-6.16,5.38-10.31,11.58-12.12,3.86-1.13,12.81-1.52,14.22,4.25,2.44,9.63,2.54,27.47-5.96,34.9Zm-2.15-20.19c.39-4.35,0-7.92-.59-11.44-.05,0,.1.24.1.24-10.56,0-10.07,12.47.49,11.19Z"/>
        </g>
        <path class="cls-2" d="m90.4,220.68s-6.17-5.84-4.61-7.78c2.11-2.62,4.95.98,4.95.98,0,0,.91-4.77,4.32-3.33,3.38,1.43-2.29,9.27-4.65,10.13Z"/>
      </g>
      <g>
        <path class="cls-2" d="m60.09,49.71c.36-2.54,4.03-4.23,4.03-4.23,0,0-.74-14.49-5.54-14.86s-4.38,7.36-4.38,7.36c0,0-7.7-4.03-9.11.99-1.38,4.89,10.33,11.07,10.33,11.07l4.68-.33Z"/>
        <path class="cls-4" d="m116.28,108.94c-2.52,2.9-5.86,5-10.02,6.3-.48.16-.97.31-1.47.42-.06-.15-.11-.27-.15-.39-1.65.41-3.2.33-4.64-.27,2.04-.25,3.92-.64,5.65-1.17,3.96-1.22,7.12-3.19,9.48-5.9,7.66-8.85,4.96-23.5,2.66-31.44-1.25-4.34-2.99-8.43-5.16-12.14-1.44-2.46-2.34-3.51-2.85-3.94l1.01-1.15c.86.75,1.92,2.2,3.17,4.33,2.23,3.81,4.01,8.02,5.3,12.47,2.39,8.24,5.17,23.48-2.98,32.87Z"/>
        <path class="cls-4" d="m53.94,116.39c.84-.49,1.79-.74,2.86-.74,1,0,2.08.22,3.2.67.36.14.73.31,1.08.48.86-.04,1.74-.08,2.65-.15-.75-.55-1.54-1.01-2.34-1.39-2.53.12-4.9.06-7.1-.15-.33-.02-.66-.06-.99-.09-.18-.02-.36-.05-.54-.08-6.83-.92-11.93-3.5-15.21-7.74-9.62-12.4-.78-34.9.26-37.43,5.15-12.48,12.22-13.98,12.28-13.99l.67-.12-.04-.68c-.11-1.64.28-2.78,1.2-3.53,2.44-1.97,7.66-.52,7.72-.51l.65.19.26-.62s1.78-4.13,4.65-5.12c1.08-.38,2.18-.26,3.33.39l.49.27.41-.4s1.4-1.31,3.44-1.51c.02,0,.06,0,.08-.01.19-.02.39-.02.59-.02l.06-1.53c-.2-.01-.4,0-.6.01h-.06c-.73.05-1.39.2-1.97.41-.01,0-.02.01-.04.01-.58.21-1.06.47-1.46.71-.27.18-.51.34-.68.47-1.38-.62-2.77-.72-4.11-.25-.24.08-.46.18-.67.28-2.41,1.19-3.99,3.89-4.6,5.1-1.12-.25-3.51-.66-5.7-.25-1.01.19-1.98.55-2.76,1.19-.97.77-1.54,1.84-1.72,3.19-.06.32-.08.65-.08,1-.21.07-.47.15-.77.28-2.5,1.06-7.85,4.38-12.01,14.46-1.75,4.26-9.98,26.14-.06,38.94,3.39,4.38,8.52,7.12,15.33,8.19.24.04.47.07.71.09.41.07.84.13,1.27.16l.29-.19Z"/>
        <path class="cls-4" d="m49.49,55.63c-.27-.21-26.58-20.86-20.77-44.37C30.63,3.56,35.85-.62,42.69.07c12.89,1.32,27.4,18.58,28.37,44.16l-1.53.06C68.49,16.95,52.81,2.65,42.53,1.6c-6.1-.63-10.59,3.03-12.32,10.03-5.57,22.54,19.96,42.59,20.22,42.79l-.94,1.21Z"/>
        <g>
          <g>
            <path class="cls-4" d="m118.33,23.39c-.37,0-.69-.27-.75-.64-.07-.45-1.92-11-13.89-14.86-11.96-3.85-18.06,3.93-18.31,4.26-.26.34-.74.4-1.07.15-.34-.26-.4-.73-.15-1.07.07-.09,6.98-8.99,20-4.79,12.88,4.16,14.91,15.95,14.93,16.07.07.42-.22.81-.63.88-.04,0-.08,0-.12,0Z"/>
            <path class="cls-4" d="m100.2,40.21c-1.56,0-3.3-.25-5.21-.86-9.9-3.19-11.41-11.99-11.47-12.36-.07-.42.22-.81.63-.87.41-.07.81.21.88.63.06.34,1.45,8.25,10.43,11.15,8.96,2.88,13.53-2.93,13.72-3.18.26-.34.74-.4,1.07-.14.34.26.4.73.15,1.07-.04.06-3.55,4.57-10.2,4.57Z"/>
            <path class="cls-4" d="m83.96,35.02c-5.57,0-11.06-2.52-14.48-6.86-3.18-4.04-3.81-8.77-1.72-12.98,4.07-8.21,14.41-6.77,18.66-5.77.41.1.67.51.57.92-.1.41-.51.67-.92.57-3.9-.92-13.35-2.27-16.94,4.96-1.81,3.65-1.25,7.79,1.55,11.35,3.24,4.11,9.74,7.52,16.95,5.87.41-.09.82.16.92.58.09.41-.16.82-.58.92-1.32.3-2.67.45-4.01.45Z"/>
            <path class="cls-4" d="m115.69,45.37c-4.92,0-9.91-2.02-13.42-5.64-.29-.3-.29-.79.02-1.08.3-.29.79-.29,1.08.02,4.33,4.47,11.13,6.28,16.91,4.49,4.16-1.28,6.92-4.25,7.59-8.15,1.33-7.8-6.84-12.27-10.41-13.83-.39-.17-.56-.62-.39-1.01.17-.39.62-.57,1.01-.39,3.9,1.71,12.82,6.63,11.31,15.5-.77,4.48-3.92,7.89-8.65,9.35-1.63.5-3.33.75-5.04.75Z"/>
          </g>
          <path class="cls-4" d="m110.74,61.02c-.19,0-.37-.07-.52-.2-20.67-18.99-38.32-16.62-38.49-16.6-.27.04-.52-.06-.69-.25-.17-.2-.23-.47-.16-.72l3.38-11.59c.12-.41.54-.64.95-.52.41.12.64.54.52.95l-3.06,10.51c4.29-.26,19.67.15,37.73,16.31.64-1.76,1.65-4.31,2.63-6.78,1.21-3.04,2.46-6.19,2.98-7.8.13-.4.57-.62.96-.49.4.13.62.56.49.96-.54,1.66-1.8,4.83-3.01,7.89-1.21,3.04-2.46,6.19-2.98,7.8-.08.25-.28.44-.53.5-.06.02-.13.03-.19.03Z"/>
        </g>
        <g class="cls-1">
          <ellipse class="cls-2" cx="56.65" cy="94.71" rx="7.2" ry="5.93"/>
        </g>
        <g class="cls-1">
          <ellipse class="cls-2" cx="100.16" cy="94.71" rx="7.2" ry="5.93"/>
        </g>
        <circle class="cls-4" cx="65.46" cy="82.81" r="4.84"/>
        <circle class="cls-4" cx="90.01" cy="82.81" r="4.84"/>
        <g>
          <path class="cls-4" d="m99,138.33c-.57.69-1.17,1.35-1.78,1.97-4.93,4.92-10.87,6.99-17.7,6.17q-13-1.58-16.5-6.78c-.2-.31-.47-.64-.8-1.02-.28-.33-.6-.68-.97-1.08-.37-.41-.77-.86-1.19-1.34-1.75-.92-3.47-2.34-4.97-4.18,1.28,2.15,2.74,3.94,3.97,5.36.38.44.74.82,1.06,1.19.69.79,1.31,1.46,1.62,1.93,3.89,5.78,4.14,5.82,17.58,7.45,1.06.13,2.08.19,3.1.19,6.78,0,12.63-2.86,17.48-8.55.84-.97,1.64-2.03,2.4-3.17-.82.8-1.94,1.45-3.32,1.87Zm-45.35-21.75s-.01.01-.01.01c-.68.48-1.24,1.13-1.61,1.92.08-.68.2-1.39.35-2.1.07-.32.15-.64.24-.95.05-.18.09-.35.15-.53.85-2.91,2.37-6.05,4.78-9.4.33-.46.77-.98,1.22-1.53.73-.88,1.57-1.88,1.98-2.67.91-1.79,2.6-4.12,5.45-5.07l.84-.28c1.07-.36,2.38-.8,3.83-1.25.87-.27,1.78-.54,2.73-.8.58,0,1.02-.14,1.39-.35.68-.18,1.38-.33,2.06-.47.14-.02.28-.06.42-.08.4-.07.8-.14,1.19-.21.42.62,1.13,1.13,2.31,1.13,1.58,0,2.44-.89,2.81-1.47.57.04,1.12.11,1.64.21.93.16,1.77.46,2.48.88l.42.25-.05.48c-.01.12-1,11.49,6.71,12.47l.49.06.14.47s1.39,4.45,4.56,6.09c1.39.73,2.96.81,4.65.25l.61-.2.21.41.09.16s.24.47.52,1.24c.53,1.45,1.28,4.16,1.28,7.85s-.91,6.18-2.21,8.57c-.52.97-1.12,1.9-1.74,2.86l.11-.32c.27-.91.27-1.86.05-2.81.34-.6.66-1.21.93-1.84.84-1.84,1.34-3.85,1.34-6.46,0-3.54-.74-6.12-1.22-7.43-.06-.15-.11-.27-.15-.39-1.65.41-3.2.33-4.64-.27-.19-.08-.36-.16-.54-.26-3.11-1.62-4.66-5.25-5.15-6.55-6.65-1.19-7.9-9.04-7.61-13.54-.66-.31-1.42-.51-2.26-.6-1.85-.22-4.07-.01-6.36.41-.34-.29-.64-.64-.85-1.01-.4.65-.94,1.19-1.66,1.55-.58.14-1.15.29-1.72.45-2.5.67-4.78,1.45-6.35,1.97l-.84.28c-2.35.79-3.79,2.79-4.58,4.33-.48.93-1.33,1.95-2.17,2.96-.42.52-.84,1-1.15,1.44-2.06,2.86-3.44,5.55-4.29,8.05-.07.21-.14.41-.2.62-.14.44-.26.86-.35,1.28l-.29.19Z"/>
          <g>
            <path class="cls-4" d="m92.62,98.96c-.34-.51-1.07-2.22,0-2.77s3.15-2.17,4.61-1.68c1.45.5.66,4.48,0,5.9-.66,1.42-3.32.45-4.61-1.45Z"/>
            <path class="cls-4" d="m104.21,104.66s-3.56-1.94-2.97-3.2c.59-1.26,1.94-3.83,3.87-3.42s.9,7.29-.9,6.62Z"/>
            <path class="cls-4" d="m97.88,108.96s-1.44-2.84-.45-3.02,2.12-.59,3.02.45c.9,1.04,3.47,3.2,1.89,4.37-1.58,1.17-3.66.63-4.46-1.8Z"/>
          </g>
          <g>
            <path class="cls-4" d="m66.47,110.49s1.02-6.17,3.33-5.79,4.09,3.45,4.73,5.07-7.41,7.02-8.07.72Z"/>
            <path class="cls-4" d="m86.24,138.36c-1.31,1.46-5.09,3.18-5.46-.47,0,0,.27-1.61.85-2.85.25-.54.57-1.01.93-1.24,1.02,1.12,2.33,2.11,3.83,2.91.12.24.21.46.29.65.09.25-.08.61-.44,1Z"/>
            <path class="cls-4" d="m87.63,113.08s-3.82-1.86-2.81-4c1.01-2.14,1.4-3.29,3.26-2.62s4.09,8.35-.46,6.62Z"/>
            <path class="cls-4" d="m97.59,122.96c-.06.53-.18,1.05-.35,1.53-.92-.46-1.92-.86-2.97-1.17-1.06-.32-2.13-.54-3.18-.67-.04-.54.05-1.06.31-1.5.21-.34.53-.64,1-.86,2.97-1.35,3.04-1.75,4.39-.67.67.53.94,1.94.8,3.33Z"/>
            <path class="cls-4" d="m79.53,127.27c-1.25.56-2.73-.12-3.2-1.41-.4-1.07-.59-2.45.68-3.03,2.21-1.01,2.26-1.31,3.27-.51,1.01.8.8,4.23-.7,4.93-.02,0-.03.01-.05.02Z"/>
          </g>
        </g>
        <path class="cls-4" d="m106.47,159.39c-4.95,0-9.82-1.88-13.56-5.43-12.57,4.63-22.76.94-24.93.03-9.92,6.8-17.21,5.74-21.61,3.64-5.57-2.67-9.45-8.55-9.88-14.99-.43-6.37,1.96-9.62,4.05-11.22,2.84-2.19,6.94-2.68,10.96-1.32,7.24,2.45,8.17,12.83,8.2,13.27.03.42-.28.79-.7.82-.41.05-.79-.28-.83-.7,0-.1-.89-9.82-7.17-11.95-3.54-1.2-7.1-.79-9.54,1.09-2.56,1.97-3.76,5.4-3.45,9.9.39,5.81,4.01,11.32,9.01,13.71,4.08,1.95,10.93,2.88,20.42-3.76.23-.16.52-.18.77-.07.11.05,11.12,5.09,24.6-.07.28-.1.6-.04.81.17,5.13,5.11,12.75,6.71,19.41,4.07,6.37-2.52,9.57-8.9,9.92-14.11.3-4.51-.89-7.93-3.45-9.9-2.44-1.88-6-2.28-9.54-1.09-4.36,1.48-7.3,6.35-7.17,11.86.01.42-.32.77-.75.78,0,0-.01,0-.02,0-.41,0-.75-.33-.76-.75-.15-6.17,3.22-11.66,8.21-13.35,4.02-1.36,8.12-.87,10.96,1.32,2.08,1.6,4.48,4.85,4.05,11.22-.38,5.69-3.9,12.66-10.88,15.43-2.31.92-4.74,1.36-7.14,1.36Z"/>
        <path class="cls-4" d="m105.33,131.66c-.11-.71-.33-1.41-.66-2.11-1.19-2.58-3.72-4.99-7.09-6.59-.91-.44-1.87-.8-2.88-1.11-1.11-.33-2.21-.57-3.31-.69-2.33-.28-4.59-.13-6.59.47-1.59.48-2.92,1.2-3.92,2.14-.93.86-1.59,1.87-1.93,3.05-.07.21-.12.42-.15.64-.44,2.26.33,4.69,2.2,6.91.19.24.4.46.62.67,1.24,1.32,2.83,2.45,4.62,3.32,1,.51,2.06.92,3.17,1.25,1.86.55,3.74.84,5.55.84.78,0,1.53-.05,2.27-.15.72-.11,1.42-.26,2.08-.46.21-.06.41-.13.61-.21,2.72-.95,4.57-2.71,5.25-4.98.29-.97.34-1.98.16-2.98Zm-3.01,4.79c-.82.8-1.94,1.45-3.32,1.87-.04.02-.08.04-.13.05-1.21.36-2.54.54-3.92.54-1.65,0-3.39-.25-5.11-.77-1.22-.38-2.39-.86-3.46-1.44-1.5-.8-2.8-1.79-3.83-2.91-.14-.13-.26-.27-.38-.41-1.71-2.04-2.33-4.22-1.77-6.13.58-1.92,2.3-3.4,4.84-4.17,1.21-.36,2.53-.54,3.92-.54.62,0,1.27.04,1.92.11,1.05.13,2.12.35,3.18.67,1.05.31,2.05.71,2.97,1.17,3.44,1.7,5.86,4.3,6.51,6.9.22.95.22,1.91-.05,2.81-.04.11-.07.21-.11.32-.26.71-.69,1.37-1.27,1.93Z"/>
        <path class="cls-2" d="m52.6,153.22s-11.7-4.42-10.15-9.33c1.21-3.86,6.17-1.19,6.17-1.19,0,0-.13-5.89,3.79-4.63s2.36,12.35.19,15.16Z"/>
        <path class="cls-2" d="m108.67,153.22s11.7-4.42,10.15-9.33c-1.21-3.86-6.17-1.19-6.17-1.19,0,0,.13-5.89-3.79-4.63s-2.36,12.35-.19,15.16Z"/>
        <g>
          <path class="cls-4" d="m77.29,91.33s-3.21-1.74-2.7-3.14c.51-1.41,4.77-1.49,5.24.21.47,1.7-2.54,2.94-2.54,2.94Z"/>
          <g>
            <path class="cls-4" d="m78,90.64c0,.11,0,.22-.01.33h0c-.04.72-.21,1.41-.52,2.05-.06.15-.14.29-.22.44-.4.65-.94,1.19-1.66,1.55-.49.25-1.07.4-1.72.45-.12.01-.24.01-.37.01-1.12,0-1.98-.31-2.64-.74-1.33-.82-1.84-2.11-1.86-2.19-.15-.4.05-.84.44-.99.4-.14.84.05.99.45.04.07.79,1.94,3.07,1.94.04,0,.07,0,.09-.01.58,0,1.02-.14,1.39-.35,1.24-.69,1.45-2.25,1.47-2.77.01-.09.01-.15.01-.16,0-.42.34-.77.77-.77s.77.34.77.77Z"/>
            <path class="cls-4" d="m85.47,92.54s-.02.06-.06.14c-.12.26-.41.82-.97,1.38-.69.72-1.81,1.41-3.48,1.41-1.21,0-2.17-.39-2.87-1-.34-.29-.64-.64-.85-1.01-.08-.12-.15-.24-.2-.35-.37-.71-.55-1.5-.58-2.28v-.18c0-.42.34-.77.77-.77s.77.34.77.77c0,.02,0,.14.02.32.04.44.18,1.2.64,1.85.42.62,1.13,1.13,2.31,1.13,1.58,0,2.44-.89,2.81-1.47.18-.26.26-.45.27-.47.15-.4.59-.59.98-.45.4.15.6.59.45.99Z"/>
          </g>
        </g>
        <path class="cls-4" d="m68.21,121.21c-1.28-1.82-2.81-3.38-4.47-4.56-.75-.55-1.54-1.01-2.34-1.39-.27-.13-.54-.26-.82-.36-2.19-.87-4.3-1-6.08-.41-.41.13-.81.31-1.19.53-.19.09-.37.21-.54.33-.05.04-.11.07-.15.12-.35.25-.67.54-.94.86-1.37,1.51-2.05,3.66-1.98,6.22.09,3.07,1.28,6.38,3.34,9.32,1.72,2.45,3.84,4.33,6.04,5.55,1.05.58,2.11,1,3.16,1.25.77.19,1.52.28,2.25.28,1.47,0,2.85-.39,4-1.2,4.18-2.94,4.06-10.35-.27-16.53Zm-14.27-4.82c.84-.49,1.79-.74,2.86-.74,1,0,2.08.22,3.2.67.36.14.73.31,1.08.48,2.19,1.12,4.24,2.96,5.86,5.29,3.85,5.49,4.14,11.94.66,14.39-1.99,1.4-4.79,1.2-7.54-.25-1.75-.92-3.47-2.34-4.97-4.18-.28-.34-.55-.69-.81-1.07-1.9-2.7-2.99-5.71-3.07-8.49-.05-1.54.22-2.9.8-3.98.38-.79.93-1.44,1.61-1.92,0,0,.01,0,.01-.01l.29-.19Z"/>
      </g>
    </g>
  </g>
</svg>