<?xml version="1.0" encoding="UTF-8"?>
<svg id="Capa_2" data-name="Capa 2" xmlns="http://www.w3.org/2000/svg" viewBox="0 0 16 12">
  <defs>
    <style>
      .cls-1 {
        fill: #fff;
      }

      .cls-2 {
        fill: #e8aaaf;
      }

      .cls-3 {
        fill: #9ab7a6;
      }

      .cls-4 {
        opacity: .29;
      }
    </style>
  </defs>
  <g id="Capa_2-2" data-name="Capa 2">
    <g id="Capa_1-2" data-name="Capa 1-2">
      <g>
        <path class="cls-3" d="m12.77,7.15c-.04-.61.02-1.44-.3-1.25-.14.09-.43.73-.45,1.25-.02.15-.14.23-.28.25-.1.01-.21,0-.29-.09-.2-.23-.17-.95-.23-1.25-.04-.19-.09-.27-.18-.25-.22.05-.37.9-.4,1.39,0,.15-.15.21-.33.22-.2,0-.29-.1-.33-.26-.13-.44-.13-1.21-.06-1.68.03-.24.38-.22.46-.11.03.05.02.1.02.1,0,.16,0,.32.01.49.13-.34.39-.71.76-.72.41,0,.53.4.58,1,.13-.36.31-.73.64-.92.32-.18.69-.11.86.51.08.29.09,1.02.09,1.26.03.36-.57.42-.6.07h0Z"/>
        <path class="cls-3" d="m14.15,7.25c.02.11-.5.13-.55-.05-.06-.16.01-1.04.04-1.36,0-.02-.02-.15.2-.17.3-.02.29.14.29.14.02.02.02,1.41.02,1.43h0Z"/>
        <path class="cls-3" d="m9.2,7.53l-.04-.06c-.05-.08-.15-.12-.23-.08-.59.25-1.27-.39-1.58-.74l.03-.02c.75-.47.59-1.6-.2-1.78-.13-.03-.27-.05-.39-.04-.21-.05-.39.02-.38.21,0,.26-.04,1.95.02,2.22.06.26.58.2.56.03,0-.01,0-.13,0-.26.3.33.97.96,1.68.96.15,0,.29-.03.43-.08.06-.02.11-.08.13-.15.02-.07,0-.15-.03-.21h0Zm-2.24-1.3c-.01-.28,0-.62-.02-.9.69.02.53.85.02.9Z"/>
        <g>
          <path class="cls-3" d="m9.64,6.02c-.31.16-.27-.35-.27-.35,0,0-.05.08-.23.02-.19-.06-.16-.3-.16-.36-.04,0-.09-.01-.13-.01-.29,0-.53.21-.66.47-.09.18-.13.39-.13.59.03,1.38,1.59,1.08,1.59-.13,0-.09,0-.17-.02-.24h0Zm-.56.29c-.04.47-.5.54-.5.01,0-.58.56-.59.5-.01Z"/>
          <g>
            <path class="cls-3" d="m9.25,5.61c-.04-.05-.08-.11-.1-.17,0-.01-.01-.03-.01-.04,0-.04.03-.07.06-.05.02,0,.04.02.05.04,0,0,0-.16.09-.13.09.04-.08.35-.08.35h0Z"/>
            <path class="cls-3" d="m9.58,5.9s-.1-.04-.09-.11.05-.09.08-.07.09.2.01.18h0Z"/>
            <path class="cls-3" d="m9.49,5.57s-.09,0-.08-.06.07-.09.1-.06.05.13-.02.13Z"/>
          </g>
        </g>
        <path class="cls-3" d="m13.91,5.51s-.38-.41-.28-.55c.13-.19.3.07.3.07,0,0,.06-.34.26-.24s-.14.66-.28.72h0Z"/>
      </g>
      <g>
        <g>
          <path class="cls-2" d="m7.86,10.22c.07.64-.52.89-.99.88h-.01c-.15.05-.4.02-.44-.16-.06-.27-.03-1.91-.01-2.19,0-.03-.02-.24.19-.27.11-.02.18,0,.22.04.55-.09,1.16.56.65,1.16.22.07.35.3.38.54h0Zm-.94-1.27c0,.09.01.45.02.54.38-.04.39-.58-.02-.54Zm.04,1.11c0,.12.01.41.02.52.61.02.53-.58-.02-.52Z"/>
          <path class="cls-2" d="m9.67,10.66c0,.14.02.22.03.24.02.05-.1.11-.23.14-.14.03-.28.02-.33-.08,0-.01,0-.03-.02-.05-.33.25-.8.11-.99-.31-.22-.51.07-1.24.57-1.49.21-.1.7-.17.83.13.21.05.18.18.18.18-.04.39-.09.83-.05,1.24h0Zm-1.04-.63c-.07.33.22.51.44.07.07-.15.09-.32.12-.52,0,0,0,0,0,0-.24,0-.48.15-.55.45h0Z"/>
          <path class="cls-2" d="m11.06,11.05c-.16-.06-.49-.56-.61-.76.02.18.04.42.06.54.02.08-.1.15-.23.18-.13.03-.28,0-.33-.13-.11-.4-.06-1.82,0-2.18,0-.03,0-.24.22-.23.13,0,.28.06.27.24-.02.32-.02.63-.01.96.19-.22.5-.5.61-.79.06-.07.52.22.46.35-.14.37-.42.62-.58.77.2.23.54.61.56.62.07.04-.28.48-.41.43h0Z"/>
          <path class="cls-2" d="m12.22,10.95c.02.11-.5.13-.55-.05-.06-.16.01-1.04.04-1.36,0-.02-.02-.15.2-.17.3-.02.29.14.29.14.02.02.02,1.41.02,1.43h0Z"/>
          <path class="cls-2" d="m14.05,10.95c-.08.2-.49.15-.49-.07,0-.06.02-.19.02-.19.02-.19.04-.42,0-.63-.03-.17-.11-.38-.3-.37-.15,0-.29.16-.28.45,0,0,0,.01,0,.01,0,.38.02.75.03.77.03.14-.49.2-.56-.01-.07-.25,0-1.48.03-1.73,0-.03,0-.2.22-.19.15,0,.22.05.25.1.01.02.01.04.02.06.14-.06.3-.11.45-.1.36.02.58.35.65.76.05.28.04.94-.04,1.15h0Z"/>
          <path class="cls-2" d="m15.55,11.78c-.28.27-.69.31-1.01.01-.13-.12-.23-.29-.23-.48.02-.21.26-.33.4-.14.03.04.06.09.1.14.25.3.48.04.54-.33-.53.06-1.1-.4-1.01-1.12.06-.44.33-.73.71-.86.24-.08.78-.11.87.3.15.68.16,1.95-.36,2.47h0Zm-.13-1.43c.02-.31,0-.56-.04-.81,0,0,0,.02,0,.02-.64,0-.61.88.03.79h0Z"/>
        </g>
        <path class="cls-2" d="m11.91,9.2s-.38-.41-.28-.55c.13-.19.3.07.3.07,0,0,.06-.34.26-.24.21.1-.14.66-.28.72h0Z"/>
      </g>
      <g>
        <path class="cls-2" d="m1.97,3.52c.02-.18.25-.3.25-.3,0,0-.05-1.03-.34-1.05s-.27.52-.27.52c0,0-.47-.29-.56.07-.08.35.63.78.63.78l.29-.02h0Z"/>
        <path class="cls-1" d="m5.4,7.72c-.15.21-.36.35-.61.45-.03.01-.06.02-.09.03,0-.01,0-.02,0-.03-.1.03-.2.02-.28-.02.12-.02.24-.05.34-.08.24-.09.43-.23.58-.42.47-.63.3-1.67.16-2.23-.08-.31-.18-.6-.32-.86-.09-.17-.14-.25-.17-.28l.06-.08c.05.05.12.16.19.31.14.27.24.57.32.88.15.58.32,1.66-.18,2.33h0Z"/>
        <path class="cls-1" d="m1.59,8.25c.05-.03.11-.05.17-.05.06,0,.13.02.2.05.02,0,.04.02.07.03.05,0,.11,0,.16-.01-.05-.04-.09-.07-.14-.1-.15,0-.3,0-.43-.01-.02,0-.04,0-.06,0-.01,0-.02,0-.03,0-.42-.07-.73-.25-.93-.55-.59-.88-.05-2.47.02-2.65.31-.88.75-.99.75-.99h.04s0-.06,0-.06c0-.12.02-.2.07-.25.15-.14.47-.04.47-.04h.04s.02-.03.02-.03c0,0,.11-.29.28-.36.07-.03.13-.02.2.03l.03.02.03-.03s.09-.09.21-.11c0,0,0,0,0,0,.01,0,.02,0,.04,0v-.11s-.02,0-.03,0h0s-.08.01-.12.03c0,0,0,0,0,0-.04.01-.06.03-.09.05-.02.01-.03.02-.04.03-.08-.04-.17-.05-.25-.02-.01,0-.03.01-.04.02-.15.08-.24.28-.28.36-.07-.02-.21-.05-.35-.02-.06.01-.12.04-.17.08-.06.05-.09.13-.11.23,0,.02,0,.05,0,.07-.01,0-.03.01-.05.02-.15.08-.48.31-.73,1.03-.11.3-.61,1.85,0,2.76.21.31.52.5.94.58.01,0,.03,0,.04,0,.03,0,.05,0,.08.01h.02s0-.01,0-.01Z"/>
        <path class="cls-1" d="m1.32,3.94S-.3,2.47.05.8C.17.25.49-.04.9,0c.79.09,1.67,1.32,1.73,3.13h-.09C2.48,1.2,1.52.19.89.11.52.07.25.33.14.82c-.34,1.6,1.22,3.02,1.23,3.03l-.06.09h0Z"/>
        <g>
          <g>
            <path class="cls-1" d="m5.52,1.66s-.04-.02-.05-.05c0-.03-.12-.78-.85-1.05-.73-.27-1.1.28-1.12.3-.02.02-.05.03-.07.01-.02-.02-.02-.05,0-.08,0,0,.43-.64,1.22-.34.79.29.91,1.13.91,1.14,0,.03-.01.06-.04.06h0Z"/>
            <path class="cls-1" d="m4.42,2.85c-.1,0-.2-.02-.32-.06-.6-.23-.7-.85-.7-.88,0-.03.01-.06.04-.06.03,0,.05.01.05.04,0,.02.09.58.64.79.55.2.83-.21.84-.23.02-.02.05-.03.07,0,.02.02.02.05,0,.08,0,0-.22.32-.62.32h0Z"/>
            <path class="cls-1" d="m3.42,2.48c-.34,0-.68-.18-.88-.49-.19-.29-.23-.62-.11-.92.25-.58.88-.48,1.14-.41.03,0,.04.04.03.07s-.03.05-.06.04c-.24-.07-.82-.16-1.03.35-.11.26-.08.55.09.8.2.29.59.53,1.03.42.03,0,.05.01.06.04,0,.03,0,.06-.04.07-.08.02-.16.03-.24.03h0Z"/>
            <path class="cls-1" d="m5.36,3.22c-.3,0-.61-.14-.82-.4-.02-.02-.02-.06,0-.08.02-.02.05-.02.07,0,.26.32.68.45,1.03.32.25-.09.42-.3.46-.58.08-.55-.42-.87-.64-.98-.02-.01-.03-.04-.02-.07s.04-.04.06-.03c.24.12.78.47.69,1.1-.05.32-.24.56-.53.66-.1.04-.2.05-.31.05h0Z"/>
          </g>
          <path class="cls-1" d="m5.06,4.33s-.02,0-.03-.01c-1.26-1.35-2.34-1.18-2.35-1.18-.02,0-.03,0-.04-.02-.01-.01-.01-.03,0-.05l.21-.82s.03-.05.06-.04c.03,0,.04.04.03.07l-.19.75c.26-.02,1.2.01,2.3,1.16.04-.12.1-.31.16-.48.07-.22.15-.44.18-.55,0-.03.03-.04.06-.03.02,0,.04.04.03.07-.03.12-.11.34-.18.56-.07.22-.15.44-.18.55,0,.02-.02.03-.03.04,0,0,0,0-.01,0h0Z"/>
        </g>
        <g class="cls-4">
          <ellipse class="cls-2" cx="1.76" cy="6.71" rx=".44" ry=".42"/>
        </g>
        <g class="cls-4">
          <ellipse class="cls-2" cx="4.41" cy="6.71" rx=".44" ry=".42"/>
        </g>
        <ellipse class="cls-1" cx="2.29" cy="5.87" rx=".3" ry=".34"/>
        <ellipse class="cls-1" cx="3.79" cy="5.87" rx=".3" ry=".34"/>
        <g>
          <path class="cls-1" d="m4.34,9.81s-.07.1-.11.14c-.3.35-.66.5-1.08.44-.53-.07-.86-.23-1.01-.48-.01-.02-.03-.05-.05-.07-.02-.02-.04-.05-.06-.08-.02-.03-.05-.06-.07-.09-.11-.07-.21-.17-.3-.3.08.15.17.28.24.38.02.03.05.06.06.08.04.06.08.1.1.14.24.41.25.41,1.07.53.06,0,.13.01.19.01.41,0,.77-.2,1.07-.61.05-.07.1-.14.15-.22-.05.06-.12.1-.2.13h0Zm-2.77-1.54h0s-.08.08-.1.14c0-.05.01-.1.02-.15,0-.02,0-.05.01-.07,0-.01,0-.02,0-.04.05-.21.14-.43.29-.67.02-.03.05-.07.07-.11.04-.06.1-.13.12-.19.06-.13.16-.29.33-.36l.05-.02c.07-.03.15-.06.23-.09.05-.02.11-.04.17-.06.04,0,.06,0,.08-.02.04-.01.08-.02.13-.03,0,0,.02,0,.03,0,.02,0,.05,0,.07-.01.03.04.07.08.14.08.1,0,.15-.06.17-.1.03,0,.07,0,.1.01.06.01.11.03.15.06l.03.02v.03s-.06.81.41.88h.03s0,.04,0,.04c0,0,.08.32.28.43.08.05.18.06.28.02h.04s.01.01.01.01h0s.01.04.03.1c.03.1.08.29.08.56s-.06.44-.13.61c-.03.07-.07.13-.11.2v-.02c.02-.06.02-.13,0-.2.02-.04.04-.09.06-.13.05-.13.08-.27.08-.46,0-.25-.05-.43-.07-.53,0-.01,0-.02,0-.03-.1.03-.2.02-.28-.02-.01,0-.02-.01-.03-.02-.19-.11-.28-.37-.31-.46-.41-.08-.48-.64-.46-.96-.04-.02-.09-.04-.14-.04-.11-.02-.25,0-.39.03-.02-.02-.04-.05-.05-.07-.02.05-.06.08-.1.11-.04,0-.07.02-.11.03-.15.05-.29.1-.39.14l-.05.02c-.14.06-.23.2-.28.31-.03.07-.08.14-.13.21-.03.04-.05.07-.07.1-.13.2-.21.39-.26.57,0,.01,0,.03-.01.04,0,.03-.02.06-.02.09h-.02s0,.01,0,.01Z"/>
          <g>
            <path class="cls-1" d="m3.95,7.02s-.07-.16,0-.2.19-.15.28-.12c.09.04.04.32,0,.42s-.2.03-.28-.1Z"/>
            <path class="cls-1" d="m4.66,7.42s-.22-.14-.18-.23c.04-.09.12-.27.24-.24s.05.52-.05.47Z"/>
            <path class="cls-1" d="m4.27,7.72s-.09-.2-.03-.21.13-.04.18.03c.05.07.21.23.12.31-.1.08-.22.04-.27-.13Z"/>
          </g>
          <g>
            <path class="cls-1" d="m2.36,7.83s.06-.44.2-.41.25.24.29.36-.45.5-.49.05h0Z"/>
            <path class="cls-1" d="m3.56,9.81c-.08.1-.31.23-.33-.03,0,0,.02-.11.05-.2.02-.04.03-.07.06-.09.06.08.14.15.23.21,0,.02.01.03.02.05,0,.02,0,.04-.03.07h0Z"/>
            <path class="cls-1" d="m3.65,8.02s-.23-.13-.17-.28.09-.23.2-.19.25.59-.03.47h0Z"/>
            <path class="cls-1" d="m4.26,8.72s-.01.07-.02.11c-.06-.03-.12-.06-.18-.08-.06-.02-.13-.04-.19-.05,0-.04,0-.08.02-.11.01-.02.03-.05.06-.06.18-.1.19-.12.27-.05.04.04.06.14.05.24h0Z"/>
            <path class="cls-1" d="m3.15,9.02c-.08.04-.17,0-.2-.1-.02-.08-.04-.17.04-.21.13-.07.14-.09.2-.04.06.06.05.3-.04.35,0,0,0,0,0,0Z"/>
          </g>
        </g>
        <path class="cls-1" d="m4.8,11.3c-.3,0-.6-.13-.83-.38-.77.33-1.39.07-1.52,0-.61.48-1.05.41-1.32.26-.34-.19-.58-.61-.6-1.06-.03-.45.12-.68.25-.8.17-.16.42-.19.67-.09.44.17.5.91.5.94,0,.03-.02.06-.04.06-.03,0-.05-.02-.05-.05,0,0-.05-.7-.44-.85-.22-.09-.43-.06-.58.08-.16.14-.23.38-.21.7.02.41.24.8.55.97.25.14.67.2,1.25-.27.01-.01.03-.01.05,0,0,0,.68.36,1.5,0,.02,0,.04,0,.05.01.31.36.78.48,1.19.29.39-.18.58-.63.61-1,.02-.32-.05-.56-.21-.7-.15-.13-.37-.16-.58-.08-.27.1-.45.45-.44.84,0,.03-.02.05-.05.06h0s-.05-.02-.05-.05c0-.44.2-.83.5-.95.25-.1.5-.06.67.09.13.11.27.34.25.8-.02.4-.24.9-.66,1.09-.14.07-.29.1-.44.1h0Z"/>
        <path class="cls-1" d="m4.73,9.33c0-.05-.02-.1-.04-.15-.07-.18-.23-.35-.43-.47-.06-.03-.11-.06-.18-.08-.07-.02-.13-.04-.2-.05-.14-.02-.28,0-.4.03-.1.03-.18.09-.24.15-.06.06-.1.13-.12.22,0,.01,0,.03,0,.05-.03.16.02.33.13.49.01.02.02.03.04.05.08.09.17.17.28.24.06.04.13.07.19.09.11.04.23.06.34.06.05,0,.09,0,.14-.01.04,0,.09-.02.13-.03.01,0,.03,0,.04-.01.17-.07.28-.19.32-.35.02-.07.02-.14,0-.21h0Zm-.18.34c-.05.06-.12.1-.2.13,0,0,0,0,0,0-.07.03-.16.04-.24.04-.1,0-.21-.02-.31-.05-.07-.03-.15-.06-.21-.1-.09-.06-.17-.13-.23-.21,0,0-.02-.02-.02-.03-.1-.14-.14-.3-.11-.43.04-.14.14-.24.3-.3.07-.03.15-.04.24-.04.04,0,.08,0,.12,0,.06,0,.13.02.19.05.06.02.13.05.18.08.21.12.36.3.4.49.01.07.01.14,0,.2,0,0,0,.01,0,.02-.02.05-.04.1-.08.14h0Z"/>
        <path class="cls-2" d="m1.51,10.86s-.71-.31-.62-.66c.07-.27.38-.08.38-.08,0,0,0-.42.23-.33s.14.88.01,1.07h0Z"/>
        <path class="cls-2" d="m4.93,10.86s.71-.31.62-.66c-.07-.27-.38-.08-.38-.08,0,0,0-.42-.23-.33s-.14.88-.01,1.07h0Z"/>
        <g>
          <path class="cls-1" d="m3.02,6.47s-.2-.12-.16-.22c.03-.1.29-.11.32.01s-.16.21-.16.21h0Z"/>
          <g>
            <path class="cls-1" d="m3.06,6.43s0,.02,0,.02h0c0,.05-.01.1-.03.15,0,.01,0,.02-.01.03-.02.05-.06.08-.1.11-.03.02-.07.03-.11.03,0,0-.01,0-.02,0-.07,0-.12-.02-.16-.05-.08-.06-.11-.15-.11-.16,0-.03,0-.06.03-.07.02,0,.05,0,.06.03,0,0,.05.14.19.14,0,0,0,0,0,0,.04,0,.06,0,.08-.02.08-.05.09-.16.09-.2,0,0,0-.01,0-.01,0-.03.02-.05.05-.05s.05.02.05.05h0Z"/>
            <path class="cls-1" d="m3.52,6.56s0,0,0,0c0,.02-.03.06-.06.1-.04.05-.11.1-.21.1-.07,0-.13-.03-.18-.07-.02-.02-.04-.05-.05-.07,0,0,0-.02-.01-.02-.02-.05-.03-.11-.04-.16h0s.02-.07.05-.07.05.02.05.05c0,0,0,0,0,.02,0,.03.01.09.04.13.03.04.07.08.14.08.1,0,.15-.06.17-.1.01-.02.02-.03.02-.03,0-.03.04-.04.06-.03.02.01.04.04.03.07h0Z"/>
          </g>
        </g>
        <path class="cls-1" d="m2.46,8.59c-.08-.13-.17-.24-.27-.32-.05-.04-.09-.07-.14-.1-.02,0-.03-.02-.05-.03-.13-.06-.26-.07-.37-.03-.03,0-.05.02-.07.04-.01,0-.02.01-.03.02,0,0,0,0,0,0-.02.02-.04.04-.06.06-.08.11-.13.26-.12.44,0,.22.08.45.2.66.11.17.23.31.37.39.06.04.13.07.19.09.05.01.09.02.14.02.09,0,.17-.03.24-.09.26-.21.25-.73-.02-1.17h0Zm-.87-.34c.05-.03.11-.05.17-.05.06,0,.13.02.2.05.02,0,.04.02.07.03.13.08.26.21.36.38.24.39.25.85.04,1.02-.12.1-.29.09-.46-.02-.11-.07-.21-.17-.3-.3-.02-.02-.03-.05-.05-.08-.12-.19-.18-.4-.19-.6,0-.11.01-.21.05-.28.02-.06.06-.1.1-.14,0,0,0,0,0,0h.02s0-.01,0-.01Z"/>
      </g>
    </g>
  </g>
</svg>